<svg version="1.1" viewBox="0.0 0.0 300.0 300.0" fill="none" stroke="none" stroke-linecap="square" stroke-miterlimit="10" xmlns:xlink="http://www.w3.org/1999/xlink" xmlns="http://www.w3.org/2000/svg"><clipPath id="g283785f0950_0_0.0"><path d="m0 0l300.0 0l0 300.0l-300.0 0l0 -300.0z" clip-rule="nonzero"/></clipPath><g clip-path="url(#g283785f0950_0_0.0)"><path d="m0 0l300.0 0l0 300.0l-300.0 0z" fill-rule="evenodd"/><path fill="#0097a7" d="m149.9992 18.158905l0 0c72.93794 0 132.06583 59.02706 132.06583 131.84064q0 73.74968 15.685455 147.49936q-73.87564 -15.658722 -147.75128 -15.658722l0 0c-72.93794 0 -132.06583 -59.027054 -132.06583 -131.84064l0 0c0 -72.813576 59.12789 -131.84064 132.06583 -131.84064z" fill-rule="evenodd"/><path fill="#eeeeee" d="m43.514843 149.99954l0 0c0 -58.809685 47.67467 -106.48436 106.48436 -106.48436l0 0c28.24141 0 55.326126 11.218857 75.29581 31.188545c19.969696 19.969696 31.188538 47.054405 31.188538 75.295815l0 0c0 58.809692 -47.674652 106.484375 -106.484344 106.484375l0 0c-58.809692 0 -106.48436 -47.674683 -106.48436 -106.484375zm24.913082 0l0 0c0 45.050583 36.520706 81.57129 81.57128 81.57129c45.050568 0 81.57127 -36.520706 81.57127 -81.57129l0 0c0 -45.050575 -36.520706 -81.57127 -81.57127 -81.57127l0 0c-45.050575 0 -81.57128 36.5207 -81.57128 81.57127z" fill-rule="evenodd"/><path fill="#ffffff" d="m150.2269 125.60157l0 -50.19963l24.340424 68.45495z" fill-rule="evenodd"/><path fill="#ffffff" d="m150.2269 174.79034l0 50.19963l-24.340431 -68.45494z" fill-rule="evenodd"/><path fill="#ffffff" d="m124.873116 150.00455l0 0c0 -13.879517 11.251579 -25.131088 25.131096 -25.131088l0 0c6.6651764 0 13.057373 2.6477356 17.770355 7.360733c4.7129974 4.712982 7.360733 11.105179 7.360733 17.770355l0 0c0 13.879517 -11.251572 25.131088 -25.131088 25.131088l0 0c-13.879517 0 -25.131096 -11.251572 -25.131096 -25.131088zm10.059975 0l0 0c0 8.323547 6.747574 15.071121 15.071121 15.071121c8.323547 0 15.071106 -6.747574 15.071106 -15.071121c0 -8.323547 -6.7475586 -15.071106 -15.071106 -15.071106l0 0c-8.323547 0 -15.071121 6.7475586 -15.071121 15.071106z" fill-rule="evenodd"/></g></svg>